<?xml version="1.0" encoding="UTF-8"?>
<!DOCTYPE svg PUBLIC "-//W3C//DTD SVG 1.1//EN" "http://www.w3.org/Graphics/SVG/1.1/DTD/svg11.dtd">
<svg version="1.1" xmlns="http://www.w3.org/2000/svg" xmlns:xlink="http://www.w3.org/1999/xlink" x="0" y="0" width="90.834" height="90.776" viewBox="0, 0, 90.834, 90.776">
  <g id="layer1">
    <g id="g1511">
      <path d="M32.556,8.857 C30.864,8.086 28.943,7.286 27.537,6.977 C23.703,6.133 15.767,6.575 15.767,6.575 C15.767,6.575 11.551,6.671 9.405,7.349 C7.71,7.885 3.192,7.336 3.192,7.782 C3.057,8.378 6.679,10.457 7.825,11.499 C13.179,16.362 18.951,17.497 25.324,18.345 C29.853,18.948 37.759,16.341 40.582,15.104 C37.868,14.373 30.711,12.475 26.682,11.705 C23.549,11.106 17.988,10.691 15.465,10.448 C16.622,10.124 23.626,10.732 26.757,11.227 C31.694,12.008 41.621,14.522 41.621,14.522 C41.621,14.522 41.579,14.468 41.578,14.466 L36.239,10.649 z" fill="#62AB04" id="path1505"/>
      <path d="M15.26,6.014 C17.131,5.943 23.735,5.765 27.407,6.714 C30.645,7.551 36.239,10.649 36.239,10.649 L41.578,14.466 C41.456,14.292 34.012,3.681 24.519,3.254 C21.169,3.104 15.719,3.668 14.494,3.526 C13.979,3.347 13.434,3.206 13.021,3.197 C12.608,3.187 12.328,3.31 12.346,3.657 C12.151,4.143 13.34,4 15.26,6.014 z" fill="#4A8B04" id="path1507"/>
      <path d="M58.149,9.942 C53.791,9.87 48.822,12.171 45.746,14.622 C44.516,15.603 42.621,16.798 41.166,17.681 C44.213,17.917 49.15,19.613 52.537,22.922 C61.944,32.115 61.44,40.981 61.44,40.981 C61.44,40.981 59.87,31.583 52.637,24.834 C48.751,21.208 43.992,19.334 39.207,18.848 C27.89,17.699 22.118,20.798 17.276,26.896 C10.825,35.02 9.819,48.065 13.453,57.781 C18.584,71.504 23.572,87.349 44.338,87.257 C48.468,87.239 52.084,84.139 52.084,84.139 C52.084,84.139 56.575,87.885 61.642,87.56 C82.175,86.239 88.268,61.938 87.597,45.004 C87.021,30.475 74.864,14.901 61.037,10.397 C60.128,10.101 59.155,9.958 58.149,9.942 z" fill="#EA5E23" id="path1509"/>
    </g>
    <path d="M12.645,0.001 C12.17,0.018 11.582,0.118 10.849,0.566 C10.162,0.986 9.593,1.904 9.323,2.776 L9.374,2.467 C9.338,2.557 9.332,2.718 9.302,2.832 C9.259,2.978 9.243,3.108 9.219,3.249 C9.193,3.423 9.159,3.565 9.157,3.756 C9.158,3.776 9.149,3.802 9.149,3.822 L9.157,3.771 C9.157,3.89 9.16,4.01 9.171,4.133 C8.927,4.196 8.673,4.227 8.435,4.302 C8.664,4.23 7.01,4.418 5.69,4.404 C5.03,4.395 4.402,4.381 3.777,4.409 C3.465,4.424 3.181,4.426 2.677,4.541 C2.425,4.598 2.111,4.65 1.562,4.988 C1.036,5.311 0.098,6.324 0.018,7.619 C-0.111,8.974 0.477,9.637 0.757,10.005 C1.075,10.423 1.332,10.649 1.591,10.875 C2.109,11.326 2.637,11.702 3.185,12.087 C4.281,12.856 5.552,13.756 5.67,13.862 C9.919,17.722 14.517,19.496 19.139,20.52 C17.524,21.787 16.077,23.259 14.767,24.909 C7.381,34.211 6.424,48.123 10.453,58.899 C12.997,65.701 15.56,73.415 20.52,79.681 C25.481,85.948 33.148,90.5 44.344,90.45 C47.706,90.436 50.37,89.133 52.107,88.031 C54.173,89.342 57.58,91.02 61.839,90.746 C73.338,90.007 81.116,82.544 85.443,73.517 C89.77,64.49 91.134,53.787 90.781,44.877 C90.138,28.66 77.383,12.364 62.019,7.36 C60.759,6.949 59.468,6.768 58.194,6.747 C52.685,6.657 47.399,9.224 43.775,12.105 C43.228,11.352 41.586,9.158 38.679,6.569 C35.323,3.58 30.55,0.328 24.655,0.063 C22.723,-0.024 20.48,0.092 18.529,0.197 C17.554,0.25 16.657,0.302 15.965,0.331 C15.377,0.356 15.043,0.342 15.02,0.351 C14.48,0.177 13.903,0.023 13.087,0.004 L13.085,0.004 C12.95,0.001 12.804,-0.002 12.645,0.002 z M13.013,3.195 C13.426,3.204 13.972,3.345 14.486,3.525 C15.711,3.666 21.161,3.102 24.511,3.253 C34.004,3.68 41.448,14.29 41.57,14.465 C41.571,14.466 41.613,14.52 41.613,14.52 C41.613,14.52 31.686,12.006 26.75,11.226 C23.618,10.731 16.614,10.123 15.457,10.446 C17.98,10.69 23.541,11.105 26.674,11.704 C30.703,12.474 37.86,14.372 40.574,15.102 C37.751,16.34 29.845,18.946 25.316,18.343 C18.943,17.495 13.171,16.361 7.817,11.497 C6.671,10.456 3.049,8.376 3.184,7.78 C3.184,7.334 7.702,7.883 9.397,7.348 C11.543,6.67 15.759,6.573 15.759,6.573 C15.759,6.573 23.695,6.131 27.529,6.975 C28.935,7.285 30.856,8.085 32.548,8.856 L36.231,10.647 C36.231,10.647 30.638,7.55 27.399,6.713 C23.727,5.764 17.123,5.942 15.252,6.013 C13.332,3.999 12.143,4.142 12.338,3.656 C12.321,3.308 12.6,3.186 13.013,3.195 z M58.141,9.94 C59.147,9.957 60.12,10.099 61.03,10.396 C74.856,14.9 87.013,30.473 87.589,45.003 C88.26,61.937 82.167,86.238 61.634,87.558 C56.567,87.884 52.076,84.137 52.076,84.137 C52.076,84.137 48.461,87.238 44.33,87.256 C23.564,87.347 18.577,71.503 13.445,57.78 C9.812,48.063 10.817,35.019 17.268,26.895 C22.11,20.797 27.882,17.697 39.199,18.846 C43.985,19.332 48.743,21.206 52.63,24.833 C59.863,31.582 61.432,40.979 61.432,40.979 C61.432,40.979 61.936,32.114 52.529,22.921 C49.142,19.611 44.205,17.916 41.158,17.68 C42.613,16.797 44.508,15.602 45.738,14.621 C48.814,12.17 53.783,9.869 58.141,9.94 z" fill="#333333" id="path1513"/>
    <path d="M35.778,23.806 C35.843,21.7 27.268,24.048 24.19,26.544 C17.032,32.346 14.856,40.621 16.602,50.263 C16.891,42.203 17.102,37.086 23.084,30.636 C27.909,25.433 35.691,26.561 35.778,23.806 z" fill="#F4AC8E" id="path1515"/>
    <path d="M77.4,72.234 C77.4,72.234 82.369,61.136 82.988,54.714 C83.681,47.523 82.784,34.448 80.526,34.448 C78.634,34.448 81.615,47.994 81.378,54.809 C81.13,61.954 77.4,72.234 77.4,72.234 z" fill="#F4AC8E" id="path1531"/>
  </g>
</svg>
